<?xml version="1.0" encoding="UTF-8" standalone="no"?>
<!-- Created with Inkscape (http://www.inkscape.org/) -->
<svg xmlns:dc="http://purl.org/dc/elements/1.1/" xmlns:cc="http://creativecommons.org/ns#" xmlns:rdf="http://www.w3.org/1999/02/22-rdf-syntax-ns#" xmlns:svg="http://www.w3.org/2000/svg" xmlns="http://www.w3.org/2000/svg" xmlns:sodipodi="http://sodipodi.sourceforge.net/DTD/sodipodi-0.dtd" xmlns:inkscape="http://www.inkscape.org/namespaces/inkscape" width="175.6653mm" height="190.42528mm" viewBox="0 0 622.4361 674.73524" id="svg4149" version="1.1" inkscape:version="0.91 r13725" sodipodi:docname="polite.svg" inkscape:export-filename="/home/dmimary/Desktop/BlockchainMeetup/path4257.png" inkscape:export-xdpi="96" inkscape:export-ydpi="96">
  <defs id="defs4151"/>
  <sodipodi:namedview id="base" pagecolor="#ffffff" bordercolor="#666666" borderopacity="1.0" inkscape:pageopacity="0.0" inkscape:pageshadow="2" inkscape:zoom="0.24748737" inkscape:cx="-485.07974" inkscape:cy="64.028043" inkscape:document-units="px" inkscape:current-layer="layer1" showgrid="false" inkscape:showpageshadow="false" showborder="true" inkscape:window-width="1366" inkscape:window-height="713" inkscape:window-x="0" inkscape:window-y="27" inkscape:window-maximized="1" fit-margin-top="0" fit-margin-left="0" fit-margin-right="0" fit-margin-bottom="0"/>
  <metadata id="metadata4154">
    <rdf:RDF>
      <cc:Work rdf:about="">
        <dc:format>image/svg+xml</dc:format>
        <dc:type rdf:resource="http://purl.org/dc/dcmitype/StillImage"/>
        <dc:title/>
      </cc:Work>
    </rdf:RDF>
  </metadata>
  <g inkscape:label="Layer 1" inkscape:groupmode="layer" id="layer1" transform="translate(-199.0573,-1010.4838)">
    <path style="fill:#000000" d="m 523.32207,1684.6109 c -8.58529,-4.3505 -17.60228,-2.9317 -34.45004,-13.5188 0,0 -33.64152,-21.3593 -73.75328,-39.5875 -134.28936,-22.4649 -192.52254,-140.6982 -186.66393,-245.5654 1.43595,-25.7031 7.52841,-53.6348 0.30168,-72.8915 -18.52472,-49.2167 -17.37791,-58.8655 -23.78164,-98.5209 -4.40958,-27.3065 -5.93239,-43.5034 -5.91745,-62.9393 0.0121,-15.7319 0.33151,-19.6531 2.13486,-26.2068 2.95902,-10.7537 6.78256,-18.0655 12.3674,-23.6503 14.27692,-14.2769 35.61537,-15.9028 75.00302,-5.7148 36.30015,9.3894 73.70665,25.4959 104.30765,44.9127 l 9.95353,6.3157 11.04647,-2.3381 c 38.36602,-8.1203 76.84136,-19.5141 98.22967,-29.0888 23.99485,-10.7416 38.1684,-20.8332 65.35259,-46.5309 21.76273,-20.5727 31.57238,-28.8407 44.84449,-37.7967 11.92919,-8.0499 18.55958,-11.5473 29.11971,-15.36 50.25593,-18.14473 92.19564,8.3146 106.03019,66.8934 2.75005,11.6444 4.75812,29.1999 5.95538,52.0646 2.83427,54.1276 4.93992,63.7183 25.03799,114.0427 18.40843,46.0936 23.66365,65.4872 25.96644,95.8254 -3.05975,174.5498 -52.19309,163.2153 -66.88231,230.4324 -18.83229,108.8199 -66.60399,24.4364 -141.56447,65.9135 -59.08079,42.5645 -59.0837,45.7608 -82.63795,43.3094 z m 38.84569,-55.5836 c 20.82037,-3.0915 44.69772,-11.4389 82.74904,-28.9284 53.16949,-24.4382 74.25075,-37.6987 95.0368,-59.7796 15.48525,-16.4499 25.45003,-33.624 34.02727,-58.6453 2.37305,-6.9226 5.73494,-16.5849 7.47089,-21.4718 3.87161,-10.8992 8.26335,-32.2826 10.60065,-51.6147 2.44587,-20.23 2.45982,-56.6253 0.029,-75.5 -6.41027,-49.7728 -15.73171,-73.4217 -45.1822,-114.629 -10.73643,-15.0224 -10.78559,-15.2109 -7.03237,-26.9614 5.1486,-16.119 6.05354,-22.9697 5.99846,-45.4096 -0.0462,-18.8208 -0.32814,-22.3032 -2.71698,-33.5583 -9.52233,-44.8651 -31.16931,-75.5583 -57.06466,-80.912 -7.49819,-1.5502 -16.08446,-0.1584 -27.41616,4.4439 -8.95879,3.6387 -28.30982,14.8405 -38.57776,22.3318 -19.49893,14.226 -41.02847,36.4372 -53.96153,55.67 -8.66913,12.8919 -15.52117,20.8578 -19.88021,23.1119 -1.5025,0.777 -5.45766,1.4127 -8.78924,1.4127 -22.62317,0 -91.51179,14.765 -106.38359,22.8014 -9.57922,5.1763 -10.96827,10.2839 -5.00583,18.4063 4.48714,6.1128 10.90667,20.7661 13.45047,30.7023 4.18407,16.3432 0.77919,65.4019 -6.59963,95.09 -4.47928,18.0221 -9.40849,29.4188 -23.78811,55 -12.6149,22.4418 -66.31686,40.4299 -84.57916,55.1736 -12.9418,10.4483 -76.45505,20.4035 -74.4509,29.2066 11.1536,65.7111 45.6194,112.6283 99.33687,144.7016 35.49867,19.4042 136.66728,36.903 165.97798,40.204 9.68507,1.0907 37.04162,0.5957 46.75095,-0.846 z m -123.11609,-58.5124 c -1.92732,-1.516 -2.63486,-2.9894 -2.63486,-5.4868 0,-2.8311 1.27322,-4.8454 7.45302,-11.7912 9.3613,-10.5217 12.21182,-12.0132 20.15416,-10.5449 10.10958,1.8688 14.12231,5.1408 12.7942,10.4324 -0.82877,3.3021 -3.74732,5.1832 -9.40138,6.0594 -3.62505,0.5618 -5.37495,1.6218 -9,5.4515 -7.51939,7.9438 -14.17278,9.9639 -19.36514,5.8796 z m 111.97413,-18.9903 c -22.55562,-2.6156 -35.6275,-14.3837 -30.25635,-27.2386 1.59275,-3.812 4.68752,-5.7622 7.837,-4.9386 0.97033,0.2537 4.75191,3.0988 8.40351,6.3224 8.04622,7.103 14.84484,9.9177 23.95526,9.9177 7.91264,0 14.21386,-2.6805 18.50959,-7.8739 3.48357,-4.2115 7.93672,-17.3285 7.95362,-23.4277 0.0202,-7.2947 -3.26264,-27.1247 -4.78539,-28.9061 -0.81574,-0.9544 -4.82741,-2.4187 -9.093,-3.3191 -15.44966,-3.2612 -20.71718,-5.2353 -24.02643,-9.0043 -5.90177,-6.7218 -3.70992,-15.8223 6.19682,-25.729 14.29529,-14.2953 40.34422,-20.0394 56.04375,-12.3583 10.9341,5.3495 11.1765,11.1489 1.25234,29.9616 -7.28759,13.8148 -9.16607,20.8247 -8.17435,30.5044 0.86707,8.4631 2.51848,12.1341 7.2004,16.0059 5.0167,4.1488 11.90385,6.1465 21.18971,6.1465 9.30722,0 14.54532,-1.5314 18.72686,-5.4751 3.70558,-3.4949 5.1114,-7.7892 6.06439,-18.5249 0.36617,-4.125 1.10687,-8.0592 1.64601,-8.7428 3.06502,-3.8861 14.68076,-3.2812 18.11808,0.9435 1.66287,2.0437 1.79637,3.4109 1.201,12.2993 -0.46771,6.9825 -1.27935,11.207 -2.68972,14 -1.87844,3.7199 -10.55061,11.9501 -20.02036,19 l -4.02971,3 -19.66602,-0.047 c -10.8163,-0.026 -21.74476,-0.4151 -24.28546,-0.8653 -4.39024,-0.7779 -4.81509,-0.6418 -8.56193,2.7432 -2.16836,1.959 -5.21491,5.9484 -6.77012,8.8654 -3.54988,6.6581 -7.01174,10.4534 -11.76546,12.8986 -6.81358,3.5047 -19.33445,5.0989 -30.17404,3.842 z m -124.61995,-20.1871 c -1.08986,-1.7875 -1.98325,-4.4209 -1.9853,-5.8521 -0.0127,-8.8738 17.65343,-19.9856 29.62831,-18.6359 5.64303,0.6361 9.17471,3.0313 11.03526,7.4842 2.95926,7.0825 -2.21072,11.2538 -13.9481,11.2538 -5.79029,0 -6.60182,0.2701 -9.28212,3.0893 -6.40244,6.7342 -12.3408,7.757 -15.44805,2.6607 z m -6.73904,-33.4123 c -0.6875,-0.2774 -1.25,-1.8558 -1.25,-3.5076 0,-4.8682 8.88357,-12.7144 21.25864,-18.7763 12.77089,-6.2557 14.69381,-6.7226 17.69095,-4.2957 3.01812,2.4439 3.2658,9.471 0.43365,12.3031 -2.26447,2.2645 -32.03084,14.9295 -34.88324,14.8422 -1.1,-0.034 -2.5625,-0.2882 -3.25,-0.5657 z m 329.24999,-18.4265 c -5.5541,-2.8012 -6.53071,-2.9791 -13.14107,-2.3935 -6.55152,0.5803 -7.31423,0.4467 -9.23856,-1.6188 -3.20354,-3.4386 -3.57487,-5.8125 -1.37168,-8.769 1.8232,-2.4466 2.57961,-2.6508 10.85553,-2.9306 19.68144,-0.6653 34.131,4.8214 30.51095,11.5855 -1.23097,2.3001 -8.20438,7.2265 -10.16892,7.1838 -0.79544,-0.017 -4.14625,-1.3931 -7.44625,-3.0574 z m -324.57691,-41.8343 c -1.63114,-1.6311 -2.92308,-3.9999 -2.92308,-5.3595 0,-3.7042 5.71968,-14.0036 11.17733,-20.127 9.06156,-10.1668 20.99316,-13.4475 38.59791,-10.6128 9.90633,1.5951 14.61608,3.5103 17.72848,7.2092 3.23112,3.84 3.18435,7.1268 -0.13858,9.7406 -3.3746,2.6545 -8.33097,2.6547 -15.31385,7e-4 -6.96207,-2.6461 -14.65153,-2.6828 -19.72573,-0.094 -4.7595,2.4281 -12.41702,10.4649 -15.23604,15.9906 -3.53788,6.9348 -9.18706,8.2318 -14.16644,3.2524 z m 295.91205,-1.7498 c -3.70051,-0.9801 -2.8499,-6.9936 1.37023,-9.687 3.3996,-2.1697 33.639,-9.8242 35.93366,-9.0959 2.67305,0.8483 5.2972,6.5816 4.48807,9.8055 -0.79618,3.1722 -5.35948,4.6278 -14.6271,4.6658 -4.30517,0.018 -8.86366,0.8623 -13.5,2.5013 -6.66792,2.3571 -9.95559,2.7927 -13.66486,1.8103 z m -15.24625,-27.4038 c -2.82157,-3.3533 -3.29075,-6.5896 -1.33889,-9.2355 2.32372,-3.15 32.99258,-13.6878 39.83642,-13.6878 3.13401,0 5.23541,4.3682 4.49064,9.3347 -0.56041,3.7371 -1.20363,4.6492 -4.64101,6.5811 -2.19475,1.2335 -7.01571,2.6606 -10.71325,3.1712 -3.98276,0.5501 -9.07231,2.1481 -12.48742,3.9208 -7.63527,3.9632 -11.7599,3.9402 -15.14649,-0.084 z m -57.70741,-32.4264 c -6.23839,-3.3902 -7.40403,-13.0867 -2.46956,-20.5431 4.02519,-6.0825 25.61473,-21.3215 33.94066,-23.9571 10.15017,-3.213 29.4962,5.955 32.63499,15.4657 1.53132,4.6399 -0.67223,8.9484 -5.36949,10.4987 -4.40794,1.4547 -7.79301,0.5518 -13.09029,-3.4917 -8.25709,-6.3028 -10.7817,-6.7704 -18.06603,-3.3464 -5.83808,2.7442 -10.6826,8.4751 -13.35115,15.7938 -3.8526,10.5661 -7.67686,13.1409 -14.22913,9.5801 z m 25.61852,-199.3713 c -3.3,-0.9526 -15.45,-6.4738 -27,-12.2694 -11.55,-5.7955 -23.61802,-11.6045 -26.81782,-12.9089 -3.1998,-1.3043 -7.57714,-3.8774 -9.72741,-5.718 -8.41378,-7.2019 -7.38117,-15.556 4.01203,-32.4586 15.87596,-23.5531 33.51194,-39.2704 51.62542,-46.009 8.81757,-3.2803 23.27023,-3.1996 29.14022,0.1626 7.80413,4.4701 10.5563,10.626 15.39473,34.4345 6.26942,30.8498 3.43038,56.1313 -7.69268,68.5029 -7.16201,7.9658 -16.23444,9.9299 -28.93449,6.2639 z m 17.52709,-18.6582 c 3.31619,-3.9958 -1.99856,-45.4841 -8.18922,-63.9272 -3.18248,-9.4812 -5.08691,-11.542 -10.65596,-11.5308 -8.96321,0.018 -18.76867,7.9797 -33.09551,26.8724 -10.83675,14.2904 -10.77179,16.1991 0.86448,25.4003 10.66179,8.4307 22.23334,15.1739 34.96479,20.3753 11.48107,4.6906 14.16249,5.1583 16.11142,2.81 z m -410.81405,106.4903 c 4.20068,-1.1667 16.7571,-10.2648 24.3703,-17.6582 20.53193,-19.9392 25.76183,-38.3752 16.46362,-58.0363 -9.23087,-19.5186 -41.93611,-39.2738 -65.33873,-39.4669 -16.83691,-0.1389 -24.68579,6.7355 -24.70264,21.6357 -0.007,6.0909 6.17863,33.0835 10.2126,44.5661 5.30639,15.1046 17.79253,37.8416 24.37737,44.3906 2.73131,2.7165 7.66896,5.4916 9.90445,5.5666 0.55,0.018 2.67087,-0.4305 4.71303,-0.9976 z" id="path4257" inkscape:connector-curvature="0" sodipodi:nodetypes="cscscsssssscsssssssscccccssssssssssscsscsssssssccsccssscsssscscsssscsssssscsssccsssccssssccsscsssscssscccccsssscccsssssscsccsscsccscsssscsccsssscsssssscsssssssssssssscssscsscc" inkscape:export-xdpi="96" inkscape:export-ydpi="96"/>
  </g>
</svg>